<svg xmlns="http://www.w3.org/2000/svg" viewBox="0 0 100 100">
  <!-- Top half (red) -->
  <path d="M 50 5 A 45 45 0 0 1 95 50 L 62 50 A 12 12 0 0 0 38 50 L 5 50 A 45 45 0 0 1 50 5 Z" fill="#e3342f"/>
  <!-- Bottom half (white) -->
  <path d="M 5 50 A 45 45 0 0 0 95 50 L 62 50 A 12 12 0 0 1 38 50 Z" fill="#ffffff"/>
  <!-- Horizontal divider line -->
  <line x1="5" y1="50" x2="38" y2="50" stroke="#1a1a1a" stroke-width="4"/>
  <line x1="62" y1="50" x2="95" y2="50" stroke="#1a1a1a" stroke-width="4"/>
  <!-- Outer ring -->
  <circle cx="50" cy="50" r="45" fill="none" stroke="#1a1a1a" stroke-width="5"/>
  <!-- Center button ring -->
  <circle cx="50" cy="50" r="12" fill="none" stroke="#1a1a1a" stroke-width="4"/>
  <!-- Center button fill -->
  <circle cx="50" cy="50" r="8" fill="#ffffff"/>
  <!-- Center button shine -->
  <circle cx="46" cy="46" r="2.5" fill="#ffffff" opacity="0.7"/>
</svg>
